<svg width="552" height="150" viewBox="0 0 552 150" fill="none" xmlns="http://www.w3.org/2000/svg">
<path d="M295.501 129.12C297.424 129.12 298.908 129.521 299.953 130.324C301.017 131.108 301.549 132.387 301.549 134.16C301.549 135.243 301.297 136.204 300.793 137.044C300.289 137.884 299.543 138.5 298.553 138.892C299.692 139.228 300.644 139.816 301.409 140.656C302.175 141.477 302.557 142.495 302.557 143.708C302.557 144.903 302.259 145.892 301.661 146.676C301.064 147.46 300.289 148.048 299.337 148.44C298.385 148.813 297.368 149 296.285 149H291.105V129.12H295.501ZM296.145 138.416C297.564 138.416 298.581 138.033 299.197 137.268C299.832 136.503 300.149 135.551 300.149 134.412C300.149 132.993 299.729 131.976 298.889 131.36C298.068 130.744 296.957 130.436 295.557 130.436H292.477V138.416H296.145ZM296.229 147.74C297.125 147.74 297.947 147.6 298.693 147.32C299.44 147.021 300.037 146.573 300.485 145.976C300.933 145.379 301.157 144.641 301.157 143.764C301.157 142.793 300.905 142.019 300.401 141.44C299.897 140.843 299.263 140.413 298.497 140.152C297.732 139.872 296.948 139.732 296.145 139.732H292.477V147.74H296.229ZM310.393 149.308C309.366 149.308 308.545 149.009 307.929 148.412C307.313 147.796 306.986 147.003 306.949 146.032V138.052H308.265V145.64C308.302 146.349 308.526 146.937 308.937 147.404C309.366 147.871 310.001 148.123 310.841 148.16C311.55 148.16 312.213 147.973 312.829 147.6C313.445 147.227 313.94 146.723 314.313 146.088C314.705 145.435 314.901 144.697 314.901 143.876V138.052H316.217V149H315.041L314.957 146.676C314.584 147.441 313.968 148.076 313.109 148.58C312.269 149.065 311.364 149.308 310.393 149.308ZM321.195 138.052H322.511V149H321.195V138.052ZM320.915 134.02C320.915 133.759 321.018 133.544 321.223 133.376C321.428 133.189 321.652 133.096 321.895 133.096C322.156 133.096 322.38 133.189 322.567 133.376C322.754 133.544 322.847 133.759 322.847 134.02C322.847 134.3 322.754 134.533 322.567 134.72C322.38 134.888 322.156 134.972 321.895 134.972C321.652 134.972 321.428 134.879 321.223 134.692C321.018 134.505 320.915 134.281 320.915 134.02ZM327.484 127.72H328.8V149H327.484V127.72ZM338.253 149.224C337.227 149.224 336.293 148.981 335.453 148.496C334.613 147.992 333.941 147.301 333.437 146.424C332.952 145.547 332.709 144.557 332.709 143.456C332.709 142.28 332.961 141.263 333.465 140.404C333.969 139.545 334.651 138.883 335.509 138.416C336.387 137.949 337.348 137.716 338.393 137.716C339.364 137.716 340.288 137.949 341.165 138.416C342.043 138.883 342.724 139.499 343.209 140.264V127.72H344.525V149H343.181V146.732C342.677 147.479 341.987 148.085 341.109 148.552C340.232 149 339.28 149.224 338.253 149.224ZM338.589 148.076C339.429 148.076 340.185 147.899 340.857 147.544C341.529 147.171 342.071 146.676 342.481 146.06C342.892 145.425 343.125 144.716 343.181 143.932V142.532C343.051 141.823 342.761 141.188 342.313 140.628C341.865 140.068 341.324 139.629 340.689 139.312C340.055 138.976 339.355 138.808 338.589 138.808C337.749 138.808 336.984 139.004 336.293 139.396C335.603 139.788 335.052 140.329 334.641 141.02C334.231 141.711 334.025 142.513 334.025 143.428C334.025 144.287 334.231 145.071 334.641 145.78C335.052 146.471 335.603 147.031 336.293 147.46C337.003 147.871 337.768 148.076 338.589 148.076ZM362.618 149.224C361.573 149.224 360.621 148.991 359.762 148.524C358.922 148.039 358.25 147.367 357.746 146.508C357.261 145.649 357.018 144.651 357.018 143.512C357.018 142.299 357.279 141.263 357.802 140.404C358.325 139.527 359.034 138.864 359.93 138.416C360.826 137.949 361.843 137.716 362.982 137.716C363.878 137.716 364.737 137.977 365.558 138.5C366.398 139.004 367.023 139.648 367.434 140.432L367.574 138.052H368.75V149H367.434V146.676C367.023 147.329 366.389 147.917 365.53 148.44C364.671 148.963 363.701 149.224 362.618 149.224ZM362.898 148.104C363.719 148.104 364.457 147.936 365.11 147.6C365.782 147.245 366.323 146.76 366.734 146.144C367.145 145.528 367.378 144.819 367.434 144.016V142.448C367.285 141.757 366.986 141.141 366.538 140.6C366.109 140.059 365.577 139.629 364.942 139.312C364.307 138.995 363.617 138.836 362.87 138.836C362.049 138.836 361.293 139.032 360.602 139.424C359.911 139.797 359.361 140.329 358.95 141.02C358.539 141.711 358.334 142.523 358.334 143.456C358.334 144.315 358.539 145.099 358.95 145.808C359.361 146.499 359.911 147.059 360.602 147.488C361.311 147.899 362.077 148.104 362.898 148.104ZM386.788 149.224C385.762 149.224 384.828 148.981 383.988 148.496C383.148 147.992 382.476 147.301 381.972 146.424C381.487 145.547 381.244 144.557 381.244 143.456C381.244 142.28 381.496 141.263 382 140.404C382.504 139.545 383.186 138.883 384.044 138.416C384.922 137.949 385.883 137.716 386.928 137.716C387.899 137.716 388.823 137.949 389.7 138.416C390.578 138.883 391.259 139.499 391.744 140.264V127.72H393.06V149H391.716V146.732C391.212 147.479 390.522 148.085 389.644 148.552C388.767 149 387.815 149.224 386.788 149.224ZM387.124 148.076C387.964 148.076 388.72 147.899 389.392 147.544C390.064 147.171 390.606 146.676 391.016 146.06C391.427 145.425 391.66 144.716 391.716 143.932V142.532C391.586 141.823 391.296 141.188 390.848 140.628C390.4 140.068 389.859 139.629 389.224 139.312C388.59 138.976 387.89 138.808 387.124 138.808C386.284 138.808 385.519 139.004 384.828 139.396C384.138 139.788 383.587 140.329 383.176 141.02C382.766 141.711 382.56 142.513 382.56 143.428C382.56 144.287 382.766 145.071 383.176 145.78C383.587 146.471 384.138 147.031 384.828 147.46C385.538 147.871 386.303 148.076 387.124 148.076ZM398.031 138.052H399.347V149H398.031V138.052ZM397.751 134.02C397.751 133.759 397.854 133.544 398.059 133.376C398.264 133.189 398.488 133.096 398.731 133.096C398.992 133.096 399.216 133.189 399.403 133.376C399.59 133.544 399.683 133.759 399.683 134.02C399.683 134.3 399.59 134.533 399.403 134.72C399.216 134.888 398.992 134.972 398.731 134.972C398.488 134.972 398.264 134.879 398.059 134.692C397.854 134.505 397.751 134.281 397.751 134.02ZM405.048 149V139.284H403.144V138.08H405.048V132.564C405.048 130.809 405.347 129.549 405.944 128.784C406.56 128 407.465 127.608 408.66 127.608C408.921 127.608 409.201 127.645 409.5 127.72C409.799 127.776 410.069 127.879 410.312 128.028L409.752 128.98C409.509 128.793 409.183 128.7 408.772 128.7C407.969 128.7 407.363 128.98 406.952 129.54C406.56 130.1 406.364 131.099 406.364 132.536V138.08H410.032V139.284H406.364V149H405.048ZM413.112 149V139.284H411.208V138.08H413.112V132.564C413.112 130.809 413.411 129.549 414.008 128.784C414.624 128 415.529 127.608 416.724 127.608C416.985 127.608 417.265 127.645 417.564 127.72C417.863 127.776 418.133 127.879 418.376 128.028L417.816 128.98C417.573 128.793 417.247 128.7 416.836 128.7C416.033 128.7 415.427 128.98 415.016 129.54C414.624 130.1 414.428 131.099 414.428 132.536V138.08H418.096V139.284H414.428V149H413.112ZM426.225 149.224C425.086 149.224 424.078 148.972 423.201 148.468C422.323 147.964 421.633 147.283 421.129 146.424C420.643 145.547 420.401 144.567 420.401 143.484C420.401 142.42 420.662 141.449 421.185 140.572C421.707 139.695 422.407 138.995 423.285 138.472C424.181 137.949 425.17 137.688 426.253 137.688C427.559 137.688 428.651 138.071 429.529 138.836C430.425 139.601 431.069 140.6 431.461 141.832L422.109 145.444C422.463 146.209 422.995 146.844 423.705 147.348C424.433 147.833 425.282 148.076 426.253 148.076C426.85 148.076 427.419 147.964 427.961 147.74C428.521 147.516 429.015 147.227 429.445 146.872L430.117 147.824C429.594 148.235 428.987 148.571 428.297 148.832C427.625 149.093 426.934 149.224 426.225 149.224ZM421.689 143.428C421.689 143.783 421.726 144.128 421.801 144.464L429.865 141.3C429.529 140.628 429.053 140.049 428.437 139.564C427.821 139.06 427.065 138.808 426.169 138.808C425.329 138.808 424.573 139.013 423.901 139.424C423.229 139.835 422.687 140.385 422.277 141.076C421.885 141.767 421.689 142.551 421.689 143.428ZM436.257 138.052L436.369 140.656C436.649 140.059 437.041 139.545 437.545 139.116C438.068 138.668 438.628 138.332 439.225 138.108C439.841 137.865 440.429 137.744 440.989 137.744L440.933 139.032C440.093 139.032 439.328 139.219 438.637 139.592C437.965 139.965 437.424 140.469 437.013 141.104C436.621 141.72 436.425 142.42 436.425 143.204V149H435.109V138.052H436.257ZM449.002 149.224C447.863 149.224 446.855 148.972 445.978 148.468C445.101 147.964 444.41 147.283 443.906 146.424C443.421 145.547 443.178 144.567 443.178 143.484C443.178 142.42 443.439 141.449 443.962 140.572C444.485 139.695 445.185 138.995 446.062 138.472C446.958 137.949 447.947 137.688 449.03 137.688C450.337 137.688 451.429 138.071 452.306 138.836C453.202 139.601 453.846 140.6 454.238 141.832L444.886 145.444C445.241 146.209 445.773 146.844 446.482 147.348C447.21 147.833 448.059 148.076 449.03 148.076C449.627 148.076 450.197 147.964 450.738 147.74C451.298 147.516 451.793 147.227 452.222 146.872L452.894 147.824C452.371 148.235 451.765 148.571 451.074 148.832C450.402 149.093 449.711 149.224 449.002 149.224ZM444.466 143.428C444.466 143.783 444.503 144.128 444.578 144.464L452.642 141.3C452.306 140.628 451.83 140.049 451.214 139.564C450.598 139.06 449.842 138.808 448.946 138.808C448.106 138.808 447.35 139.013 446.678 139.424C446.006 139.835 445.465 140.385 445.054 141.076C444.662 141.767 444.466 142.551 444.466 143.428ZM459.035 138.052L459.147 140.488C459.52 139.629 460.127 138.957 460.967 138.472C461.825 137.987 462.759 137.744 463.767 137.744C464.793 137.744 465.624 138.052 466.259 138.668C466.893 139.265 467.22 140.049 467.239 141.02V149H465.895V141.384C465.876 140.675 465.652 140.087 465.223 139.62C464.793 139.153 464.168 138.911 463.347 138.892C462.619 138.892 461.937 139.069 461.303 139.424C460.668 139.779 460.155 140.273 459.763 140.908C459.389 141.543 459.203 142.28 459.203 143.12V149H457.887V138.052H459.035ZM473.307 133.236H474.651V138.192H478.039V139.256H474.651V149H473.307V139.256H470.983V138.192H473.307V133.236ZM496.066 138.052L500.07 147.04L503.906 138.052H505.25L500.098 149.672L496.57 141.888L493.35 149.672L488.198 138.052H489.514L493.462 146.956L496.066 140.656L494.862 138.052H496.066ZM507.326 143.456C507.326 142.392 507.578 141.421 508.082 140.544C508.605 139.667 509.305 138.976 510.182 138.472C511.078 137.949 512.077 137.688 513.178 137.688C514.298 137.688 515.297 137.949 516.174 138.472C517.052 138.976 517.742 139.667 518.246 140.544C518.75 141.421 519.002 142.392 519.002 143.456C519.002 144.52 518.75 145.491 518.246 146.368C517.742 147.245 517.042 147.945 516.146 148.468C515.269 148.972 514.27 149.224 513.15 149.224C512.049 149.224 511.06 148.981 510.182 148.496C509.305 147.992 508.605 147.311 508.082 146.452C507.578 145.575 507.326 144.576 507.326 143.456ZM508.642 143.484C508.642 144.343 508.838 145.127 509.23 145.836C509.641 146.527 510.182 147.077 510.854 147.488C511.545 147.899 512.31 148.104 513.15 148.104C513.99 148.104 514.746 147.899 515.418 147.488C516.109 147.077 516.65 146.527 517.042 145.836C517.453 145.127 517.658 144.343 517.658 143.484C517.658 142.625 517.453 141.851 517.042 141.16C516.65 140.451 516.109 139.891 515.418 139.48C514.746 139.051 513.99 138.836 513.15 138.836C512.292 138.836 511.517 139.06 510.826 139.508C510.154 139.937 509.622 140.507 509.23 141.216C508.838 141.925 508.642 142.681 508.642 143.484ZM524.058 138.052L524.17 140.656C524.45 140.059 524.842 139.545 525.346 139.116C525.869 138.668 526.429 138.332 527.026 138.108C527.642 137.865 528.23 137.744 528.79 137.744L528.734 139.032C527.894 139.032 527.129 139.219 526.438 139.592C525.766 139.965 525.225 140.469 524.814 141.104C524.422 141.72 524.226 142.42 524.226 143.204V149H522.91V138.052H524.058ZM532.48 127.72H533.796V149H532.48V127.72ZM543.249 149.224C542.223 149.224 541.289 148.981 540.449 148.496C539.609 147.992 538.937 147.301 538.433 146.424C537.948 145.547 537.705 144.557 537.705 143.456C537.705 142.28 537.957 141.263 538.461 140.404C538.965 139.545 539.647 138.883 540.505 138.416C541.383 137.949 542.344 137.716 543.389 137.716C544.36 137.716 545.284 137.949 546.161 138.416C547.039 138.883 547.72 139.499 548.205 140.264V127.72H549.521V149H548.177V146.732C547.673 147.479 546.983 148.085 546.105 148.552C545.228 149 544.276 149.224 543.249 149.224ZM543.585 148.076C544.425 148.076 545.181 147.899 545.853 147.544C546.525 147.171 547.067 146.676 547.477 146.06C547.888 145.425 548.121 144.716 548.177 143.932V142.532C548.047 141.823 547.757 141.188 547.309 140.628C546.861 140.068 546.32 139.629 545.685 139.312C545.051 138.976 544.351 138.808 543.585 138.808C542.745 138.808 541.98 139.004 541.289 139.396C540.599 139.788 540.048 140.329 539.637 141.02C539.227 141.711 539.021 142.513 539.021 143.428C539.021 144.287 539.227 145.071 539.637 145.78C540.048 146.471 540.599 147.031 541.289 147.46C541.999 147.871 542.764 148.076 543.585 148.076Z" fill="white"/>
<path d="M139.15 29.6H153.25V57.05H170.2V68.15H153.25V119H139.15V68.15H127.75V57.05H139.15V29.6ZM192.453 148.85L206.703 117.05L177.903 56.9H193.653L213.603 101.15L233.403 56.9H246.303L206.253 148.85H192.453ZM298.074 120.5C293.574 120.5 289.224 119.55 285.024 117.65C280.924 115.65 277.674 113 275.274 109.7V148.85H261.324V55.85H273.474L274.674 66.35C277.674 62.85 281.374 60 285.774 57.8C290.274 55.5 295.224 54.35 300.624 54.35C306.524 54.35 311.774 55.75 316.374 58.55C321.074 61.35 324.774 65.25 327.474 70.25C330.174 75.25 331.524 81.1 331.524 87.8C331.524 94.5 330.024 100.3 327.024 105.2C324.124 110.1 320.124 113.9 315.024 116.6C310.024 119.2 304.374 120.5 298.074 120.5ZM295.374 109.25C299.274 109.25 302.874 108.35 306.174 106.55C309.574 104.65 312.274 102.1 314.274 98.9C316.274 95.7 317.274 92.05 317.274 87.95C317.274 83.75 316.324 80.05 314.424 76.85C312.524 73.55 309.974 71 306.774 69.2C303.674 67.3 300.174 66.35 296.274 66.35C290.874 66.35 286.324 67.85 282.624 70.85C278.924 73.85 276.474 77.75 275.274 82.55V93.05C276.074 97.75 278.324 101.65 282.024 104.75C285.824 107.75 290.274 109.25 295.374 109.25ZM350.24 56.9H364.19V119H350.24V56.9ZM349.19 34.55C349.19 32.25 350.04 30.4 351.74 29C353.54 27.5 355.49 26.75 357.59 26.75C359.69 26.75 361.59 27.5 363.29 29C364.99 30.4 365.84 32.25 365.84 34.55C365.84 36.85 364.99 38.75 363.29 40.25C361.59 41.65 359.69 42.35 357.59 42.35C355.49 42.35 353.54 41.65 351.74 40.25C350.04 38.75 349.19 36.85 349.19 34.55ZM406.022 120.2C401.522 120.2 397.172 119.45 392.972 117.95C388.872 116.35 385.472 114 382.772 110.9L388.772 102.8C391.272 105.3 393.922 107.2 396.722 108.5C399.522 109.7 402.222 110.3 404.822 110.3C407.822 110.3 410.422 109.7 412.622 108.5C414.922 107.3 416.072 105.25 416.072 102.35C416.072 100.15 415.322 98.4 413.822 97.1C412.422 95.8 410.572 94.8 408.272 94.1C406.072 93.3 403.772 92.5 401.372 91.7C390.772 88.3 385.472 82.25 385.472 73.55C385.472 70.35 386.272 67.3 387.872 64.4C389.572 61.5 392.022 59.15 395.222 57.35C398.522 55.55 402.572 54.65 407.372 54.65C411.672 54.65 415.522 55.2 418.922 56.3C422.322 57.4 425.522 59.15 428.522 61.55L422.972 70.1C421.172 68.3 419.022 66.95 416.522 66.05C414.122 65.05 411.922 64.5 409.922 64.4C407.222 64.4 404.822 65.05 402.722 66.35C400.722 67.65 399.722 69.45 399.722 71.75C399.622 73.85 400.272 75.55 401.672 76.85C403.072 78.05 404.872 79.05 407.072 79.85C409.372 80.65 411.672 81.4 413.972 82.1C418.472 83.6 422.272 85.65 425.372 88.25C428.572 90.85 430.172 94.65 430.172 99.65C430.172 105.25 428.172 110.1 424.172 114.2C420.172 118.2 414.122 120.2 406.022 120.2ZM462.303 56.9L463.203 68.75C465.603 64.25 468.853 60.75 472.953 58.25C477.153 55.65 481.953 54.35 487.353 54.35C492.453 54.35 496.703 55.55 500.103 57.95C503.603 60.35 505.753 63.6 506.553 67.7C509.053 63.5 512.303 60.25 516.303 57.95C520.403 55.55 524.753 54.35 529.353 54.35C535.353 54.35 540.103 56.1 543.603 59.6C547.203 63.1 549.103 67.55 549.303 72.95V119H535.353V78.2C535.153 75 534.303 72.35 532.803 70.25C531.403 68.05 528.953 66.85 525.453 66.65C521.753 66.65 518.503 67.75 515.703 69.95C512.903 72.05 510.703 74.85 509.103 78.35C507.503 81.85 506.653 85.55 506.553 89.45V119H492.453V78.2C492.353 75 491.503 72.35 489.903 70.25C488.403 68.05 485.853 66.85 482.253 66.65C478.653 66.65 475.453 67.75 472.653 69.95C469.853 72.05 467.653 74.85 466.053 78.35C464.453 81.85 463.653 85.6 463.653 89.6V119H449.703V56.9H462.303Z" fill="white"/>
<path d="M60 0L120 120L65 95V80L91.5 93L60 30L29.5 93L55 80V95L0 120L60 0Z" fill="white"/>
</svg>
