<svg width="543" height="149" viewBox="0 0 543 149" fill="none" xmlns="http://www.w3.org/2000/svg">
<path d="M132.15 29.6H146.25V57.05H163.2V68.15H146.25V119H132.15V68.15H120.75V57.05H132.15V29.6ZM185.453 148.85L199.703 117.05L170.903 56.9H186.653L206.603 101.15L226.403 56.9H239.303L199.253 148.85H185.453ZM291.074 120.5C286.574 120.5 282.224 119.55 278.024 117.65C273.924 115.65 270.674 113 268.274 109.7V148.85H254.324V55.85H266.474L267.674 66.35C270.674 62.85 274.374 60 278.774 57.8C283.274 55.5 288.224 54.35 293.624 54.35C299.524 54.35 304.774 55.75 309.374 58.55C314.074 61.35 317.774 65.25 320.474 70.25C323.174 75.25 324.524 81.1 324.524 87.8C324.524 94.5 323.024 100.3 320.024 105.2C317.124 110.1 313.124 113.9 308.024 116.6C303.024 119.2 297.374 120.5 291.074 120.5ZM288.374 109.25C292.274 109.25 295.874 108.35 299.174 106.55C302.574 104.65 305.274 102.1 307.274 98.9C309.274 95.7 310.274 92.05 310.274 87.95C310.274 83.75 309.324 80.05 307.424 76.85C305.524 73.55 302.974 71 299.774 69.2C296.674 67.3 293.174 66.35 289.274 66.35C283.874 66.35 279.324 67.85 275.624 70.85C271.924 73.85 269.474 77.75 268.274 82.55V93.05C269.074 97.75 271.324 101.65 275.024 104.75C278.824 107.75 283.274 109.25 288.374 109.25ZM343.24 56.9H357.19V119H343.24V56.9ZM342.19 34.55C342.19 32.25 343.04 30.4 344.74 29C346.54 27.5 348.49 26.75 350.59 26.75C352.69 26.75 354.59 27.5 356.29 29C357.99 30.4 358.84 32.25 358.84 34.55C358.84 36.85 357.99 38.75 356.29 40.25C354.59 41.65 352.69 42.35 350.59 42.35C348.49 42.35 346.54 41.65 344.74 40.25C343.04 38.75 342.19 36.85 342.19 34.55ZM399.022 120.2C394.522 120.2 390.172 119.45 385.972 117.95C381.872 116.35 378.472 114 375.772 110.9L381.772 102.8C384.272 105.3 386.922 107.2 389.722 108.5C392.522 109.7 395.222 110.3 397.822 110.3C400.822 110.3 403.422 109.7 405.622 108.5C407.922 107.3 409.072 105.25 409.072 102.35C409.072 100.15 408.322 98.4 406.822 97.1C405.422 95.8 403.572 94.8 401.272 94.1C399.072 93.3 396.772 92.5 394.372 91.7C383.772 88.3 378.472 82.25 378.472 73.55C378.472 70.35 379.272 67.3 380.872 64.4C382.572 61.5 385.022 59.15 388.222 57.35C391.522 55.55 395.572 54.65 400.372 54.65C404.672 54.65 408.522 55.2 411.922 56.3C415.322 57.4 418.522 59.15 421.522 61.55L415.972 70.1C414.172 68.3 412.022 66.95 409.522 66.05C407.122 65.05 404.922 64.5 402.922 64.4C400.222 64.4 397.822 65.05 395.722 66.35C393.722 67.65 392.722 69.45 392.722 71.75C392.622 73.85 393.272 75.55 394.672 76.85C396.072 78.05 397.872 79.05 400.072 79.85C402.372 80.65 404.672 81.4 406.972 82.1C411.472 83.6 415.272 85.65 418.372 88.25C421.572 90.85 423.172 94.65 423.172 99.65C423.172 105.25 421.172 110.1 417.172 114.2C413.172 118.2 407.122 120.2 399.022 120.2ZM455.303 56.9L456.203 68.75C458.603 64.25 461.853 60.75 465.953 58.25C470.153 55.65 474.953 54.35 480.353 54.35C485.453 54.35 489.703 55.55 493.103 57.95C496.603 60.35 498.753 63.6 499.553 67.7C502.053 63.5 505.303 60.25 509.303 57.95C513.403 55.55 517.753 54.35 522.353 54.35C528.353 54.35 533.103 56.1 536.603 59.6C540.203 63.1 542.103 67.55 542.303 72.95V119H528.353V78.2C528.153 75 527.303 72.35 525.803 70.25C524.403 68.05 521.953 66.85 518.453 66.65C514.753 66.65 511.503 67.75 508.703 69.95C505.903 72.05 503.703 74.85 502.103 78.35C500.503 81.85 499.653 85.55 499.553 89.45V119H485.453V78.2C485.353 75 484.503 72.35 482.903 70.25C481.403 68.05 478.853 66.85 475.253 66.65C471.653 66.65 468.453 67.75 465.653 69.95C462.853 72.05 460.653 74.85 459.053 78.35C457.453 81.85 456.653 85.6 456.653 89.6V119H442.703V56.9H455.303Z" fill="white"/>
<path fill-rule="evenodd" clip-rule="evenodd" d="M120 120L60 0L0 120H15C49.637 97.9127 62.0989 103.712 77.9471 111.087C85.7772 114.731 94.4339 118.76 107 120H120ZM83.5601 97.688C88.1442 99.8862 91.586 101.537 94 100.837L59.1233 33L27 98.4982C53.9653 83.4966 72.2436 92.2615 83.5601 97.688Z" fill="white"/>
</svg>
